<svg aria-hidden="true" style="width:0;height:0;position:absolute;overflow:hidden" xmlns="http://www.w3.org/2000/svg"><defs><symbol id="icon-close" viewBox="0 0 32 32"><path d="M1.646 32a1.646 1.646 0 0 1-1.163-2.811L29.19.482a1.646 1.646 0 1 1 2.328 2.329L2.811 31.517A1.65 1.65 0 0 1 1.646 32z"/><path d="M30.355 32a1.63 1.63 0 0 1-1.163-.483L.483 2.811A1.647 1.647 0 0 1 2.812.482l28.707 28.707A1.646 1.646 0 0 1 30.356 32z"/></symbol><symbol id="icon-select" viewBox="0 0 52 32"><path d="M26 32 .019 2h51.962L26 32z"/></symbol><symbol id="icon-search" viewBox="0 0 35 32"><path d="M4.39 5.208c2.831-2.351 6.595-3.646 10.598-3.646s7.767 1.295 10.598 3.646c2.831 2.351 4.39 5.477 4.39 8.801 0 3.04-1.304 5.913-3.691 8.18l8.324 6.913c.4.332.4.87 0 1.203-.2.166-.462.249-.724.249s-.524-.083-.724-.249l-8.324-6.913c-2.73 1.982-6.189 3.065-9.849 3.065-4.004 0-7.767-1.295-10.598-3.646S0 17.334 0 14.009s1.559-6.451 4.39-8.801zm1.448 16.401c5.046 4.19 13.255 4.19 18.3 0s5.045-11.008 0-15.198c-2.523-2.095-5.836-3.143-9.15-3.143S8.36 4.316 5.838 6.411c-5.045 4.19-5.045 11.008 0 15.198z"/></symbol><symbol id="icon-ticket" viewBox="0 0 45 32"><path d="M5.02 1.569H0v30.118h5.02V1.569zm12.625 0h-5.02v30.118h5.02V1.569zm7.605 0h-5.019v30.118h5.019V1.569zm19.927 0h-7.453v30.118h7.453V1.569zm-35.138 0H7.605v30.118h2.434V1.569zm20.079 0h-2.434v30.118h2.434V1.569zm5.019 0h-2.434v30.118h2.434V1.569z"/></symbol><symbol id="icon-location" viewBox="0 0 21 32"><path fill="#fff" style="fill:var(--color2,#fff)" d="M10.667 0C4.785 0 0 4.99 0 11.123 0 18.832 10.677 32 10.677 32s10.656-13.547 10.656-20.877C21.333 4.99 16.548 0 10.666 0zm3.218 14.38c-.887.925-2.053 1.388-3.218 1.388s-2.331-.463-3.218-1.388c-1.775-1.85-1.775-4.861 0-6.712.859-.896 2.002-1.39 3.218-1.39s2.359.494 3.218 1.39c1.775 1.851 1.775 4.861 0 6.712z"/></symbol><symbol id="icon-cart" viewBox="0 0 32 32"><path d="M12 29a3 3 0 1 1-6 0 3 3 0 0 1 6 0zm20 0a3 3 0 1 1-6 0 3 3 0 0 1 6 0zm0-13V4H8a2 2 0 0 0-2-2H0v2h4l1.502 12.877A4 4 0 0 0 8 24h24v-2H8a2 2 0 0 1-2-2v-.02L32 16z"/></symbol><symbol id="icon-location" viewBox="0 0 32 32"><path d="M16 0C10.477 0 6 4.477 6 10c0 10 10 22 10 22s10-12 10-22c0-5.523-4.477-10-10-10zm0 16a6 6 0 1 1 0-12 6 6 0 0 1 0 12z"/></symbol><symbol id="icon-hour-glass" viewBox="0 0 32 32"><path d="M22.781 16C27.086 13.271 30 8.025 30 2c0-.677-.037-1.345-.109-2H2.108a18.31 18.31 0 0 0-.109 2c0 6.025 2.914 11.271 7.219 14-4.305 2.729-7.219 7.975-7.219 14 0 .677.037 1.345.109 2h27.783A18.31 18.31 0 0 0 30 30c0-6.025-2.914-11.271-7.219-14zM5 30c0-5.841 2.505-10.794 7-12.428v-3.143C7.505 12.795 5 7.842 5 2.001h22c0 5.841-2.505 10.794-7 12.428v3.143c4.495 1.634 7 6.587 7 12.428H5zm14.363-9.075C17.124 19.655 17 18.007 17 17.007V15c0-1 .119-2.654 2.367-3.927C20.57 10.374 21.611 9.312 22.4 8H9.601c.79 1.313 1.832 2.376 3.036 3.075C14.876 12.345 15 13.993 15 14.993V17c0 1-.119 2.654-2.367 3.927-2.269 1.318-3.961 3.928-4.472 7.073h15.677c-.511-3.147-2.204-5.758-4.475-7.075z"/></symbol><symbol id="icon-logo-desk" viewBox="0 0 62 32"><path d="M19.119 23.909c-.575-1.648-1.759-2.472-3.552-2.472h-.566V31.6h.566c1.385 0 2.408-.563 3.068-1.688.556-.96.834-2.183.834-3.666-.001-.883-.118-1.662-.35-2.337zM9.412 24.031c.576 1.648 1.76 2.471 3.551 2.471h.566V16.339h-.566c-1.385 0-2.408.563-3.068 1.688-.554.96-.831 2.182-.832 3.666 0 .882.116 1.661.348 2.337zM0 .108h7.526V2.8H2.702v1.346H6.71V6.7H2.702v1.361h4.824v2.692H0V.109zM11.31.096h9.737L16.178 10.97 11.309.096zm4.869 9.527L20.202.661h-8.03l4.008 8.962zM24.937.108h7.526V2.8h-4.824v1.346h4.008V6.7h-4.008v1.361h4.824v2.692h-7.526V.109zM37.094 10.737V.095h.579l7.214 7.234V.095h.549v10.644l-8.342-.003zM53.318 10.753V2.8h-3.904V.108h8.342V2.8h-3.904v7.953h-.534zM4.438 18.461c.653 0 1.173.102 1.559.306.443.223.816.572 1.074 1.005s.39.934.381 1.442c.003.49-.131.97-.386 1.384-.259.424-.623.77-1.054 1.002a2.94 2.94 0 0 1 1.351 1.009c.359.459.553 1.032.549 1.621a2.816 2.816 0 0 1-.393 1.46 2.919 2.919 0 0 1-1.046 1.048 2.69 2.69 0 0 1-.727.275c-.267.061-.623.092-1.069.092H.105V18.461h4.334zM21.842 28.333c-.777-.698-1.16-1.746-1.15-3.143h2.419c-.01.581.158 1.025.505 1.331s.831.459 1.455.459c.515 0 .92-.087 1.217-.26s.445-.438.445-.795c0-.296-.151-.51-.453-.642a4.165 4.165 0 0 0-.898-.283l-.549-.102a11.623 11.623 0 0 1-1.974-.561 3.44 3.44 0 0 1-1.395-.994c-.376-.449-.564-1.04-.564-1.774s.188-1.359.564-1.873c.376-.515.878-.9 1.507-1.155a5.409 5.409 0 0 1 2.056-.382c.901 0 1.68.173 2.338.52s1.175.872 1.551 1.575c.174.297.29.627.341.971.039.302.059.606.059.91h-2.419c0-.551-.143-.956-.43-1.216s-.732-.39-1.336-.39c-.485 0-.861.087-1.128.26s-.401.408-.401.703c0 .326.178.566.534.719.438.178.89.316 1.351.413.891.184 1.586.359 2.086.528.504.171.953.48 1.299.895.366.428.549 1.03.549 1.805 0 .734-.198 1.366-.594 1.896s-.918.935-1.566 1.216a5.24 5.24 0 0 1-2.1.421c-1.435-.002-2.541-.352-3.318-1.05zM35.506 29.105v-7.953h-3.904V18.46h8.342v2.692H36.04v7.953h-.534zM42.749 18.461h7.526v2.692h-4.824v1.346h4.008v2.554h-4.008v1.361h4.824v2.692h-7.526V18.462zM61.422 29.105h-7.941V18.461h4.023c.861 0 1.563.158 2.108.474.52.291.951.725 1.247 1.254.298.535.452 1.142.445 1.759a3.433 3.433 0 0 1-.713 2.133 3.345 3.345 0 0 1-1.796 1.246l2.628 3.777zm-7.392-9.711v5.49h3.815l-3.815-5.49zm0 9.145h6.353l-2.167-3.105-.46.015H54.03v3.089zm.386-9.513 4.037 5.811a2.83 2.83 0 0 0 1.648-1.025c.428-.521.66-1.183.653-1.866a2.983 2.983 0 0 0-.401-1.529 2.656 2.656 0 0 0-1.128-1.055c-.436-.224-1.005-.336-1.707-.336h-3.102z"/></symbol><symbol id="icon-logo-mob" viewBox="0 0 74 32"><path d="M22.887 24.117c-.687-1.586-2.101-2.379-4.242-2.38h-.675v9.784h.675c1.655 0 2.876-.542 3.664-1.625.664-.925.996-2.101.996-3.53-.001-.85-.141-1.599-.418-2.25zM11.294 24.235c.688 1.586 2.102 2.379 4.241 2.379h.675V16.83h-.675c-1.655 0-2.876.542-3.664 1.625-.662.924-.993 2.101-.993 3.529 0 .849.139 1.599.416 2.25zM.053 1.205h8.988v2.591H3.279v1.296h4.787v2.459H3.279v1.31h5.762v2.591H.053V1.205zM13.561 1.193h11.63l-5.815 10.468-5.815-10.468zm5.815 9.172 4.804-8.627h-9.591l4.787 8.627zM29.835 1.205h8.988v2.591h-5.762v1.296h4.787v2.459h-4.787v1.31h5.762v2.591h-8.988V1.205zM44.355 11.437V1.192h.691l8.616 6.964V1.192h.656v10.247l-9.963-.002zM63.731 11.452V3.796h-4.663V1.205h9.963v2.591h-4.662v7.656h-.638zM5.353 18.872c.78 0 1.401.098 1.861.294.53.215.974.55 1.282.968s.466.899.455 1.388c.003.472-.157.934-.461 1.332a3.12 3.12 0 0 1-1.259.964c.64.187 1.2.525 1.613.972.429.442.661.993.656 1.561.005.496-.158.983-.47 1.406a3.23 3.23 0 0 1-1.25 1.009 3.742 3.742 0 0 1-.869.265c-.319.059-.745.088-1.276.088H.175V18.872h5.177zM26.139 28.375c-.928-.672-1.386-1.681-1.374-3.026h2.89c-.012.559.189.986.603 1.281s.993.442 1.737.442c.615 0 1.099-.083 1.454-.25s.532-.422.532-.766c0-.285-.18-.491-.541-.618a5.838 5.838 0 0 0-1.073-.272 56.597 56.597 0 0 0-.656-.098 16.495 16.495 0 0 1-2.358-.54 4.205 4.205 0 0 1-1.666-.957c-.449-.432-.674-1.001-.674-1.708s.224-1.308.674-1.804c.449-.496 1.049-.866 1.799-1.111a7.875 7.875 0 0 1 2.455-.368c1.075 0 2.006.167 2.792.501s1.403.839 1.853 1.516c.209.286.347.604.408.935.047.29.07.583.071.876h-2.89c0-.53-.171-.92-.514-1.17s-.875-.375-1.596-.375c-.579 0-1.028.083-1.347.25s-.479.393-.479.677c0 .314.213.545.638.692.523.172 1.062.305 1.613.398 1.064.177 1.894.346 2.491.508a3.594 3.594 0 0 1 1.551.861c.437.412.656.991.656 1.737 0 .707-.236 1.315-.709 1.826s-1.096.901-1.87 1.17a7.583 7.583 0 0 1-2.509.405c-1.714-.002-3.034-.339-3.962-1.011zM42.457 29.119v-7.656h-4.662v-2.591h9.963v2.591h-4.662v7.656h-.638zM51.109 18.872h8.988v2.591h-5.762v1.296h4.787v2.459h-4.787v1.31h5.762v2.591h-8.988V18.872zM73.41 29.119h-9.484V18.872h4.804c1.028 0 1.867.152 2.517.456a3.603 3.603 0 0 1 1.489 1.207c.356.515.54 1.099.532 1.693.008.745-.292 1.471-.851 2.054-.536.586-1.29 1.008-2.145 1.2l3.138 3.636zm-8.829-9.349v5.285h4.556l-4.556-5.285zm0 8.804h7.588l-2.588-2.989-.55.015h-4.45v2.974zm.461-9.157 4.822 5.595c.774-.128 1.47-.477 1.968-.986.512-.501.789-1.139.78-1.796a2.455 2.455 0 0 0-.479-1.472 3.022 3.022 0 0 0-1.347-1.016c-.52-.216-1.2-.324-2.039-.324h-3.705z"/></symbol><symbol id="icon-logo-tab" viewBox="0 0 110 32"><path d="M34.347 24.197c-1.034-1.663-3.16-2.494-6.38-2.495h-1.016v10.256h1.016c2.489 0 4.326-.568 5.511-1.703.998-.969 1.498-2.203 1.498-3.7-.002-.891-.212-1.677-.628-2.358zM16.909 24.32c1.035 1.663 3.161 2.494 6.379 2.494h1.016V16.558h-1.016c-2.489 0-4.326.568-5.511 1.703-.996.969-1.494 2.202-1.494 3.7 0 .89.209 1.676.626 2.359zM0 .179h13.52v2.716H4.853v1.358h7.2V6.83h-7.2v1.374h8.667v2.716H0V.178zM20.319.166h17.493l-8.747 10.973L20.318.166zm8.747 9.615L36.293.737H21.866l7.2 9.044zM44.799.178h13.52v2.716h-8.667v1.358h7.2v2.577h-7.2v1.374h8.667v2.716h-13.52V.177zM66.639 10.905V.166h1.04l12.96 7.3v-7.3h.987v10.742l-14.987-.003zM95.786 10.92V2.895h-7.013V.179h14.987v2.716h-7.013v8.025h-.96zM7.972 18.698c1.173 0 2.107.103 2.8.309.797.225 1.466.577 1.929 1.014s.7.942.685 1.455c.005.494-.236.979-.693 1.397-.465.428-1.118.777-1.893 1.011.962.196 1.805.55 2.427 1.019.645.463.994 1.041.987 1.636.007.52-.238 1.03-.707 1.474-.458.441-1.106.805-1.88 1.057a7.565 7.565 0 0 1-1.307.278c-.48.062-1.12.093-1.92.093H.187V18.699h7.787zM39.239 28.661c-1.396-.705-2.085-1.762-2.067-3.172h4.347c-.018.586.284 1.034.907 1.343s1.493.463 2.613.463c.924 0 1.653-.087 2.187-.262s.8-.442.8-.803c0-.298-.271-.515-.813-.648a12.064 12.064 0 0 0-1.613-.285 123.13 123.13 0 0 0-.987-.103 34.33 34.33 0 0 1-3.547-.566c-.967-.208-1.829-.553-2.507-1.003-.676-.453-1.013-1.049-1.013-1.79s.338-1.371 1.013-1.891 1.578-.908 2.707-1.165a16.684 16.684 0 0 1 3.693-.386c1.618 0 3.018.175 4.2.525s2.111.88 2.787 1.59c.313.3.522.633.613.98.07.304.106.611.107.918h-4.347c0-.556-.258-.965-.773-1.227s-1.316-.393-2.4-.393c-.871 0-1.547.087-2.027.262s-.72.412-.72.71c0 .329.32.571.96.725.786.18 1.598.319 2.427.417 1.6.185 2.849.363 3.747.532.905.173 1.712.485 2.333.903.658.432.987 1.039.987 1.821 0 .741-.356 1.379-1.067 1.914s-1.649.944-2.813 1.227a15.907 15.907 0 0 1-3.773.424c-2.578-.002-4.564-.355-5.96-1.06zM63.786 29.44v-8.025h-7.013v-2.716H71.76v2.716h-7.013v8.025h-.96zM76.799 18.698h13.52v2.716h-8.667v1.358h7.2v2.577h-7.2v1.374h8.667v2.716h-13.52V18.697zM110.345 29.44H96.078V18.698h7.227c1.547 0 2.809.159 3.787.478.934.294 1.71.732 2.24 1.266.535.54.812 1.152.8 1.775.013.781-.439 1.542-1.28 2.153-.806.614-1.94 1.057-3.227 1.258l4.72 3.812zm-13.28-9.8v5.541h6.853l-6.853-5.541zm0 9.229h11.413l-3.893-3.133-.827.015h-6.693v3.118zm.693-9.599 7.253 5.865c1.165-.135 2.211-.501 2.96-1.034.77-.525 1.187-1.194 1.173-1.883.011-.543-.239-1.077-.72-1.543-.48-.463-1.185-.833-2.027-1.065-.782-.226-1.804-.34-3.067-.34h-5.573z"/></symbol><symbol id="theme-sun-iqon" viewBox="0 0 32 32"><path d="M24.157 12.47c-1.552-2.613-4.171-3.62-7.067-2.974-1.067.238-.615 1.874.451 1.636 2.774-.619 4.943.99 5.816 3.622.664 2.001-.336 4.045-1.697 5.473-2.663 2.797-7.147 3.036-9.979.416-1.978-1.83-2.642-4.83-1.981-7.385.762-2.947 3.427-4.079 6.258-3.709 1.082.141 1.069-1.557 0-1.697C6.966 6.677 5.326 18.613 11.847 22.91c4.224 2.784 9.881.806 12.406-3.28 1.385-2.242 1.218-4.947-.096-7.16zM6.652 18.837c-.063-.447-.413-.899-.958-.899-.098 0-.2.015-.301.045-1.356.392-2.555.81-3.665 1.279-.572.241-.734.809-.642 1.264.093.463.432.775.842.775a1 1 0 0 0 .385-.084 32.49 32.49 0 0 1 3.627-1.265c.577-.167.773-.68.712-1.115zM2.598 5.26c1.6 1.06 3.328 2.133 5.604 3.481.167.099.34.149.515.149.444 0 .844-.329.973-.799a.958.958 0 0 0-.455-1.114C6.962 5.631 5.238 4.56 3.646 3.505a.97.97 0 0 0-.537-.173c-.412 0-.794.312-.929.76-.138.458.022.905.418 1.167zM17.056 25.524a1 1 0 0 0-.734.297.914.914 0 0 0-.231.705c.083 1.244.166 2.488.254 3.731.046.642.578.978 1.081.978a1 1 0 0 0 .733-.297.908.908 0 0 0 .228-.704 921.437 921.437 0 0 1-.254-3.73c-.043-.642-.575-.978-1.078-.978zM9.614 23.31a.974.974 0 0 0-.842.478 491.77 491.77 0 0 1-4.323 6.696c-.204.312-.226.649-.063.951.182.338.573.564.972.564a.99.99 0 0 0 .846-.47 480.613 480.613 0 0 0 4.326-6.701c.199-.315.217-.656.05-.959a1.128 1.128 0 0 0-.966-.56zM23.333 8.509a.995.995 0 0 0 .847-.464c.523-.784 1.027-1.557 1.452-2.392a.99.99 0 0 0-.03-1 1.123 1.123 0 0 0-.933-.538c-.346 0-.642.191-.811.524-.416.816-.914 1.581-1.431 2.357-.206.309-.231.645-.07.946.181.338.573.566.976.567zM30.031 26.032c-1.499-1.194-2.798-2.128-4.088-2.941a.977.977 0 0 0-.528-.162c-.426 0-.816.319-.948.777a.987.987 0 0 0 .435 1.144 41.434 41.434 0 0 1 3.713 2.654c.196.155.424.238.662.238.466 0 .913-.312 1.063-.74.126-.359.013-.712-.309-.969zM16.012 6.641a.974.974 0 0 0 .727-.298c.164-.182.236-.426.207-.705-.161-1.577-.256-3.165-.339-4.656C16.571.337 16.042 0 15.538 0c-.289 0-.558.108-.736.297a.925.925 0 0 0-.238.704c.084 1.498.179 3.092.34 4.672.065.635.606.968 1.107.968zM29.895 13.707c-.593.079-2.346.083-2.691.083-.653 0-.994.514-.994 1.022s.342 1.021.994 1.021c.349 0 2.123-.005 2.737-.086.606-.081.999-.481.999-1.02 0-.505-.475-1.099-1.044-1.02z"/></symbol><symbol id="icon-moon" viewBox="0 0 32 32"><path d="M21.837 17.831a5.502 5.502 0 1 1-6.674-6.674 5.437 5.437 0 0 1 1.091-.158 4.5 4.5 0 0 0 5.741 5.741c-.016.375-.07.739-.158 1.091z"/></symbol><symbol id="icon-chevron-double-up" viewBox="0 0 80 80"><path d="m41.17 11.777 31.76 31.76 7.07-7.07L48.24 4.71c-2.106-2.102-5.013-3.402-8.223-3.402s-6.118 1.3-8.224 3.402L.017 36.466l7.07 7.07 31.777-31.76a1.627 1.627 0 0 1 2.306 0z"/><path d="m72.93 76.667 7.07-7.06-36.447-36.45c-.905-.905-2.155-1.464-3.535-1.464s-2.63.559-3.535 1.464L.016 69.607l7.07 7.06 32.93-32.913z"/></symbol><symbol id="icon-sun-stroke" viewBox="0 0 32 32"><path d="M16.001 12c2.203 0 4 1.795 4 4s-1.797 4-4 4-4-1.795-4-4 1.797-4 4-4m0-4a8 8 0 1 0 0 16 8 8 0 0 0 0-16zM14 2a2 2 0 1 1 3.999-.001A2 2 0 0 1 14 2zM4 6a2 2 0 1 1 3.999-.001A2 2 0 0 1 4 6zm-2 8a2 2 0 1 1 .001 3.999A2 2 0 0 1 2 14zm2 12a2 2 0 1 1 3.999-.001A2 2 0 0 1 4 26zm10 4c0-1.109.895-2 2-2 1.108 0 2 .891 2 2a2 2 0 1 1-4 0zm10-4a2 2 0 1 1 3.999-.001A2 2 0 0 1 24 26zm6-8a2 2 0 1 1 .001-4.001A2 2 0 0 1 30 18zM24 6a2 2 0 1 1 3.999-.001A2 2 0 0 1 24 6z"/></symbol><symbol id="icon-sun-fill" viewBox="0 0 32 32"><path d="M16.001 8a8 8 0 1 0 0 16 8 8 0 0 0 0-16zM14 2a2 2 0 1 1 3.999-.001A2 2 0 0 1 14 2zM4 6a2 2 0 1 1 3.999-.001A2 2 0 0 1 4 6zm-2 8a2 2 0 1 1 .001 3.999A2 2 0 0 1 2 14zm2 12a2 2 0 1 1 3.999-.001A2 2 0 0 1 4 26zm10 4c0-1.109.895-2 2-2 1.108 0 2 .891 2 2a2 2 0 1 1-4 0zm10-4a2 2 0 1 1 3.999-.001A2 2 0 0 1 24 26zm6-8a2 2 0 1 1 .001-4.001A2 2 0 0 1 30 18zM24 6a2 2 0 1 1 3.999-.001A2 2 0 0 1 24 6z"/></symbol><symbol id="icon-moon-stroke" viewBox="0 0 32 32"><path d="M5.895 9.148c.848 8.959 8 16.109 16.957 16.953a12.132 12.132 0 0 1-6.5 1.898C9.539 28 4 22.461 4 15.646c0-2.347.688-4.587 1.895-6.498M11.844 0C5.02 1.969 0 8.189 0 15.646 0 24.68 7.32 32 16.352 32c7.457 0 13.68-5.023 15.648-11.844-2.18 1.258-4.672 2.031-7.367 2.031-8.188 0-14.82-6.639-14.82-14.822-.001-2.695.773-5.187 2.031-7.365z"/></symbol><symbol id="icon-moon-fill" viewBox="0 0 32 32"><path d="M24.633 22.184c-8.188 0-14.82-6.637-14.82-14.82 0-2.695.773-5.188 2.031-7.363C5.02 1.969 0 8.188 0 15.645 0 24.676 7.32 32 16.352 32c7.457 0 13.68-5.023 15.648-11.844-2.18 1.254-4.672 2.028-7.367 2.028z"/></symbol></defs></svg>