<svg aria-hidden="true" style="position: absolute; width: 0; height: 0; overflow: hidden;" version="1.1" xmlns="http://www.w3.org/2000/svg" xmlns:xlink="http://www.w3.org/1999/xlink">
<defs>
<symbol id="icon-logo-desk" viewBox="0 0 62 32">
<path fill="#fff" style="fill: var(--color1, #fff)" d="M19.119 23.909c-0.575-1.648-1.759-2.472-3.552-2.472h-0.566v10.163h0.566c1.385 0 2.408-0.563 3.068-1.688 0.556-0.96 0.834-2.183 0.834-3.666-0.001-0.883-0.118-1.662-0.35-2.337z"></path>
<path fill="#fff" style="fill: var(--color1, #fff)" d="M9.412 24.031c0.576 1.648 1.76 2.471 3.551 2.471h0.566v-10.163h-0.566c-1.385 0-2.408 0.563-3.068 1.688-0.554 0.96-0.831 2.182-0.832 3.666 0 0.882 0.116 1.661 0.348 2.337z"></path>
<path fill="#fff" style="fill: var(--color1, #fff)" d="M0 0.108h7.526v2.692h-4.824v1.346h4.008v2.554h-4.008v1.361h4.824v2.692h-7.526v-10.644z"></path>
<path fill="#fff" style="fill: var(--color1, #fff)" d="M11.31 0.096h9.737l-4.869 10.874-4.869-10.874zM16.179 9.623l4.023-8.962h-8.030l4.008 8.962z"></path>
<path fill="#fff" style="fill: var(--color1, #fff)" d="M24.937 0.108h7.526v2.692h-4.824v1.346h4.008v2.554h-4.008v1.361h4.824v2.692h-7.526v-10.644z"></path>
<path fill="#fff" style="fill: var(--color1, #fff)" d="M37.094 10.737v-10.642h0.579l7.214 7.234v-7.234h0.549v10.644l-8.342-0.003z"></path>
<path fill="#fff" style="fill: var(--color1, #fff)" d="M53.318 10.753v-7.953h-3.904v-2.692h8.342v2.692h-3.904v7.953h-0.534z"></path>
<path fill="#fff" style="fill: var(--color1, #fff)" d="M4.438 18.461c0.653 0 1.173 0.102 1.559 0.306 0.443 0.223 0.816 0.572 1.074 1.005s0.39 0.934 0.381 1.442c0.003 0.49-0.131 0.97-0.386 1.384-0.259 0.424-0.623 0.77-1.054 1.002 0.536 0.195 1.005 0.545 1.351 1.009 0.359 0.459 0.553 1.032 0.549 1.621 0.004 0.515-0.132 1.021-0.393 1.46-0.255 0.436-0.616 0.797-1.046 1.048-0.229 0.127-0.473 0.219-0.727 0.275-0.267 0.061-0.623 0.092-1.069 0.092h-4.572v-10.644h4.334z"></path>
<path fill="#fff" style="fill: var(--color1, #fff)" d="M21.842 28.333c-0.777-0.698-1.16-1.746-1.15-3.143h2.419c-0.010 0.581 0.158 1.025 0.505 1.331s0.831 0.459 1.455 0.459c0.515 0 0.92-0.087 1.217-0.26s0.445-0.438 0.445-0.795c0-0.296-0.151-0.51-0.453-0.642-0.288-0.128-0.589-0.223-0.898-0.283-0.297-0.056-0.48-0.090-0.549-0.102-0.672-0.128-1.333-0.316-1.974-0.561-0.538-0.206-1.018-0.548-1.395-0.994-0.376-0.449-0.564-1.040-0.564-1.774s0.188-1.359 0.564-1.873c0.376-0.515 0.878-0.9 1.507-1.155 0.656-0.26 1.353-0.39 2.056-0.382 0.901 0 1.68 0.173 2.338 0.52s1.175 0.872 1.551 1.575c0.174 0.297 0.29 0.627 0.341 0.971 0.039 0.302 0.059 0.606 0.059 0.91h-2.419c0-0.551-0.143-0.956-0.43-1.216s-0.732-0.39-1.336-0.39c-0.485 0-0.861 0.087-1.128 0.26s-0.401 0.408-0.401 0.703c0 0.326 0.178 0.566 0.534 0.719 0.438 0.178 0.89 0.316 1.351 0.413 0.891 0.184 1.586 0.359 2.086 0.528 0.504 0.171 0.953 0.48 1.299 0.895 0.366 0.428 0.549 1.030 0.549 1.805 0 0.734-0.198 1.366-0.594 1.896s-0.918 0.935-1.566 1.216c-0.666 0.284-1.38 0.427-2.1 0.421-1.435-0.002-2.541-0.352-3.318-1.050z"></path>
<path fill="#fff" style="fill: var(--color1, #fff)" d="M35.506 29.105v-7.953h-3.904v-2.692h8.342v2.692h-3.904v7.953h-0.534z"></path>
<path fill="#fff" style="fill: var(--color1, #fff)" d="M42.749 18.461h7.526v2.692h-4.824v1.346h4.008v2.554h-4.008v1.361h4.824v2.692h-7.526v-10.644z"></path>
<path fill="#fff" style="fill: var(--color1, #fff)" d="M61.422 29.105h-7.941v-10.644h4.023c0.861 0 1.563 0.158 2.108 0.474 0.52 0.291 0.951 0.725 1.247 1.254 0.298 0.535 0.452 1.142 0.445 1.759 0.007 0.774-0.244 1.528-0.713 2.133-0.448 0.609-1.080 1.047-1.796 1.246l2.628 3.777zM54.030 19.394v5.49h3.815l-3.815-5.49zM54.030 28.539h6.353l-2.167-3.105-0.46 0.015h-3.726v3.089zM54.416 19.026l4.037 5.811c0.648-0.134 1.231-0.496 1.648-1.025 0.428-0.521 0.66-1.183 0.653-1.866 0.006-0.538-0.133-1.067-0.401-1.529-0.267-0.459-0.659-0.826-1.128-1.055-0.436-0.224-1.005-0.336-1.707-0.336h-3.102z"></path>
</symbol>
<symbol id="icon-logo-mob" viewBox="0 0 74 32">
<path fill="#fff" style="fill: var(--color1, #fff)" d="M22.887 24.117c-0.687-1.586-2.101-2.379-4.242-2.38h-0.675v9.784h0.675c1.655 0 2.876-0.542 3.664-1.625 0.664-0.925 0.996-2.101 0.996-3.53-0.001-0.85-0.141-1.599-0.418-2.25z"></path>
<path fill="#fff" style="fill: var(--color1, #fff)" d="M11.294 24.235c0.688 1.586 2.102 2.379 4.241 2.379h0.675v-9.784h-0.675c-1.655 0-2.876 0.542-3.664 1.625-0.662 0.924-0.993 2.101-0.993 3.529 0 0.849 0.139 1.599 0.416 2.25z"></path>
<path fill="#fff" style="fill: var(--color1, #fff)" d="M0.053 1.205h8.988v2.591h-5.762v1.296h4.787v2.459h-4.787v1.31h5.762v2.591h-8.988v-10.247z"></path>
<path fill="#fff" style="fill: var(--color1, #fff)" d="M13.561 1.193h11.63l-5.815 10.468-5.815-10.468zM19.376 10.365l4.804-8.627h-9.591l4.787 8.627z"></path>
<path fill="#fff" style="fill: var(--color1, #fff)" d="M29.835 1.205h8.988v2.591h-5.762v1.296h4.787v2.459h-4.787v1.31h5.762v2.591h-8.988v-10.247z"></path>
<path fill="#fff" style="fill: var(--color1, #fff)" d="M44.355 11.437v-10.245h0.691l8.616 6.964v-6.964h0.656v10.247l-9.963-0.002z"></path>
<path fill="#fff" style="fill: var(--color1, #fff)" d="M63.731 11.452v-7.656h-4.663v-2.591h9.963v2.591h-4.662v7.656h-0.638z"></path>
<path fill="#fff" style="fill: var(--color1, #fff)" d="M5.353 18.872c0.78 0 1.401 0.098 1.861 0.294 0.53 0.215 0.974 0.55 1.282 0.968s0.466 0.899 0.455 1.388c0.003 0.472-0.157 0.934-0.461 1.332-0.309 0.409-0.744 0.741-1.259 0.964 0.64 0.187 1.2 0.525 1.613 0.972 0.429 0.442 0.661 0.993 0.656 1.561 0.005 0.496-0.158 0.983-0.47 1.406-0.305 0.42-0.735 0.767-1.25 1.009-0.273 0.122-0.566 0.211-0.869 0.265-0.319 0.059-0.745 0.088-1.276 0.088h-5.46v-10.247h5.177z"></path>
<path fill="#fff" style="fill: var(--color1, #fff)" d="M26.139 28.375c-0.928-0.672-1.386-1.681-1.374-3.026h2.89c-0.012 0.559 0.189 0.986 0.603 1.281s0.993 0.442 1.737 0.442c0.615 0 1.099-0.083 1.454-0.25s0.532-0.422 0.532-0.766c0-0.285-0.18-0.491-0.541-0.618-0.344-0.123-0.704-0.215-1.073-0.272-0.355-0.054-0.573-0.087-0.656-0.098-0.803-0.123-1.592-0.304-2.358-0.54-0.643-0.199-1.216-0.527-1.666-0.957-0.449-0.432-0.674-1.001-0.674-1.708s0.224-1.308 0.674-1.804c0.449-0.496 1.049-0.866 1.799-1.111 0.783-0.25 1.616-0.375 2.455-0.368 1.075 0 2.006 0.167 2.792 0.501s1.403 0.839 1.853 1.516c0.209 0.286 0.347 0.604 0.408 0.935 0.047 0.29 0.070 0.583 0.071 0.876h-2.89c0-0.53-0.171-0.92-0.514-1.17s-0.875-0.375-1.596-0.375c-0.579 0-1.028 0.083-1.347 0.25s-0.479 0.393-0.479 0.677c0 0.314 0.213 0.545 0.638 0.692 0.523 0.172 1.062 0.305 1.613 0.398 1.064 0.177 1.894 0.346 2.491 0.508 0.602 0.165 1.138 0.462 1.551 0.861 0.437 0.412 0.656 0.991 0.656 1.737 0 0.707-0.236 1.315-0.709 1.826s-1.096 0.901-1.87 1.17c-0.795 0.273-1.648 0.411-2.509 0.405-1.714-0.002-3.034-0.339-3.962-1.011z"></path>
<path fill="#fff" style="fill: var(--color1, #fff)" d="M42.457 29.119v-7.656h-4.662v-2.591h9.963v2.591h-4.662v7.656h-0.638z"></path>
<path fill="#fff" style="fill: var(--color1, #fff)" d="M51.109 18.872h8.988v2.591h-5.762v1.296h4.787v2.459h-4.787v1.31h5.762v2.591h-8.988v-10.247z"></path>
<path fill="#fff" style="fill: var(--color1, #fff)" d="M73.41 29.119h-9.484v-10.247h4.804c1.028 0 1.867 0.152 2.517 0.456 0.621 0.281 1.136 0.698 1.489 1.207 0.356 0.515 0.54 1.099 0.532 1.693 0.008 0.745-0.292 1.471-0.851 2.054-0.536 0.586-1.29 1.008-2.145 1.2l3.138 3.636zM64.581 19.77v5.285h4.556l-4.556-5.285zM64.581 28.574h7.588l-2.588-2.989-0.55 0.015h-4.45v2.974zM65.042 19.417l4.822 5.595c0.774-0.128 1.47-0.477 1.968-0.986 0.512-0.501 0.789-1.139 0.78-1.796 0.007-0.518-0.159-1.028-0.479-1.472-0.319-0.441-0.788-0.795-1.347-1.016-0.52-0.216-1.2-0.324-2.039-0.324h-3.705z"></path>
</symbol>
<symbol id="icon-logo-tab" viewBox="0 0 110 32">
<path fill="#fff" style="fill: var(--color1, #fff)" d="M34.347 24.197c-1.034-1.663-3.16-2.494-6.38-2.495h-1.016v10.256h1.016c2.489 0 4.326-0.568 5.511-1.703 0.998-0.969 1.498-2.203 1.498-3.7-0.002-0.891-0.212-1.677-0.628-2.358z"></path>
<path fill="#fff" style="fill: var(--color1, #fff)" d="M16.909 24.32c1.035 1.663 3.161 2.494 6.379 2.494h1.016v-10.256h-1.016c-2.489 0-4.326 0.568-5.511 1.703-0.996 0.969-1.494 2.202-1.494 3.7 0 0.89 0.209 1.676 0.626 2.359z"></path>
<path fill="#fff" style="fill: var(--color1, #fff)" d="M0 0.179h13.52v2.716h-8.667v1.358h7.2v2.577h-7.2v1.374h8.667v2.716h-13.52v-10.742z"></path>
<path fill="#fff" style="fill: var(--color1, #fff)" d="M20.319 0.166h17.493l-8.747 10.973-8.747-10.973zM29.066 9.781l7.227-9.044h-14.427l7.2 9.044z"></path>
<path fill="#fff" style="fill: var(--color1, #fff)" d="M44.799 0.178h13.52v2.716h-8.667v1.358h7.2v2.577h-7.2v1.374h8.667v2.716h-13.52v-10.742z"></path>
<path fill="#fff" style="fill: var(--color1, #fff)" d="M66.639 10.905v-10.739h1.040l12.96 7.3v-7.3h0.987v10.742l-14.987-0.003z"></path>
<path fill="#fff" style="fill: var(--color1, #fff)" d="M95.786 10.92v-8.025h-7.013v-2.716h14.987v2.716h-7.013v8.025h-0.96z"></path>
<path fill="#fff" style="fill: var(--color1, #fff)" d="M7.972 18.698c1.173 0 2.107 0.103 2.8 0.309 0.797 0.225 1.466 0.577 1.929 1.014s0.7 0.942 0.685 1.455c0.005 0.494-0.236 0.979-0.693 1.397-0.465 0.428-1.118 0.777-1.893 1.011 0.962 0.196 1.805 0.55 2.427 1.019 0.645 0.463 0.994 1.041 0.987 1.636 0.007 0.52-0.238 1.030-0.707 1.474-0.458 0.441-1.106 0.805-1.88 1.057-0.411 0.128-0.851 0.221-1.307 0.278-0.48 0.062-1.12 0.093-1.92 0.093h-8.213v-10.742h7.787z"></path>
<path fill="#fff" style="fill: var(--color1, #fff)" d="M39.239 28.661c-1.396-0.705-2.085-1.762-2.067-3.172h4.347c-0.018 0.586 0.284 1.034 0.907 1.343s1.493 0.463 2.613 0.463c0.924 0 1.653-0.087 2.187-0.262s0.8-0.442 0.8-0.803c0-0.298-0.271-0.515-0.813-0.648-0.518-0.129-1.059-0.225-1.613-0.285-0.533-0.057-0.862-0.091-0.987-0.103-1.208-0.129-2.395-0.319-3.547-0.566-0.967-0.208-1.829-0.553-2.507-1.003-0.676-0.453-1.013-1.049-1.013-1.79s0.338-1.371 1.013-1.891 1.578-0.908 2.707-1.165c1.178-0.262 2.431-0.393 3.693-0.386 1.618 0 3.018 0.175 4.2 0.525s2.111 0.88 2.787 1.59c0.313 0.3 0.522 0.633 0.613 0.98 0.070 0.304 0.106 0.611 0.107 0.918h-4.347c0-0.556-0.258-0.965-0.773-1.227s-1.316-0.393-2.4-0.393c-0.871 0-1.547 0.087-2.027 0.262s-0.72 0.412-0.72 0.71c0 0.329 0.32 0.571 0.96 0.725 0.786 0.18 1.598 0.319 2.427 0.417 1.6 0.185 2.849 0.363 3.747 0.532 0.905 0.173 1.712 0.485 2.333 0.903 0.658 0.432 0.987 1.039 0.987 1.821 0 0.741-0.356 1.379-1.067 1.914s-1.649 0.944-2.813 1.227c-1.196 0.287-2.479 0.431-3.773 0.424-2.578-0.002-4.564-0.355-5.96-1.060z"></path>
<path fill="#fff" style="fill: var(--color1, #fff)" d="M63.786 29.44v-8.025h-7.013v-2.716h14.987v2.716h-7.013v8.025h-0.96z"></path>
<path fill="#fff" style="fill: var(--color1, #fff)" d="M76.799 18.698h13.52v2.716h-8.667v1.358h7.2v2.577h-7.2v1.374h8.667v2.716h-13.52v-10.742z"></path>
<path fill="#fff" style="fill: var(--color1, #fff)" d="M110.345 29.44h-14.267v-10.742h7.227c1.547 0 2.809 0.159 3.787 0.478 0.934 0.294 1.71 0.732 2.24 1.266 0.535 0.54 0.812 1.152 0.8 1.775 0.013 0.781-0.439 1.542-1.28 2.153-0.806 0.614-1.94 1.057-3.227 1.258l4.72 3.812zM97.065 19.64v5.541h6.853l-6.853-5.541zM97.065 28.869h11.413l-3.893-3.133-0.827 0.015h-6.693v3.118zM97.758 19.27l7.253 5.865c1.165-0.135 2.211-0.501 2.96-1.034 0.77-0.525 1.187-1.194 1.173-1.883 0.011-0.543-0.239-1.077-0.72-1.543-0.48-0.463-1.185-0.833-2.027-1.065-0.782-0.226-1.804-0.34-3.067-0.34h-5.573z"></path>
</symbol>
</defs>
</svg>