<svg
  aria-hidden="true"
  style="position:absolute;width:0;height:0;overflow:hidden"
  xmlns="http://www.w3.org/2000/svg"
><defs>
<symbol id="icon-select" viewBox="0 0 52 32"><path
        fill="#939393"
        style="fill:var(--color1, #939393)"
        d="M26 32 .019 2h51.962L26 32z"
      /></symbol>
<symbol id="icon-search" viewBox="0 0 35 32"><path
        fill="#939393"
        style="fill:var(--color1, #939393)"
        d="M4.39 5.208c2.831-2.351 6.595-3.646 10.598-3.646s7.767 1.295 10.598 3.646c2.831 2.351 4.39 5.477 4.39 8.801 0 3.04-1.304 5.913-3.691 8.18l8.324 6.913c.4.332.4.87 0 1.203-.2.166-.462.249-.724.249s-.524-.083-.724-.249l-8.324-6.913c-2.73 1.982-6.189 3.065-9.849 3.065-4.004 0-7.767-1.295-10.598-3.646S0 17.334 0 14.009s1.559-6.451 4.39-8.801zm1.448 16.401c5.046 4.19 13.255 4.19 18.3 0s5.045-11.008 0-15.198c-2.523-2.095-5.836-3.143-9.15-3.143S8.36 4.316 5.838 6.411c-5.045 4.19-5.045 11.008 0 15.198z"
      />
            </symbol>
<symbol id="icon-ticket" viewBox="0 0 45 32"><path
        d="M5.02 1.569H0v30.118h5.02V1.569zM17.645 1.569h-5.02v30.118h5.02V1.569zM25.25 1.569h-5.019v30.118h5.019V1.569zM45.177 1.569h-7.453v30.118h7.453V1.569zM10.039 1.569H7.605v30.118h2.434V1.569zM30.118 1.569h-2.434v30.118h2.434V1.569zM35.137 1.569h-2.434v30.118h2.434V1.569z"
      />
      </symbol>
<symbol id="icon-location" viewBox="0 0 21 32"><path
        fill="#fff"
        style="fill:var(--color2, #fff)"
        d="M10.667 0C4.785 0 0 4.99 0 11.123 0 18.832 10.677 32 10.677 32s10.656-13.547 10.656-20.877C21.333 4.99 16.548 0 10.666 0zm3.218 14.38c-.887.925-2.053 1.388-3.218 1.388s-2.331-.463-3.218-1.388c-1.775-1.85-1.775-4.861 0-6.712.859-.896 2.002-1.39 3.218-1.39s2.359.494 3.218 1.39c1.775 1.851 1.775 4.861 0 6.712z"
      />
       </symbol>
      </defs>
</svg>
